<svg width="48" height="48" viewBox="0 0 48 48" fill="none" xmlns="http://www.w3.org/2000/svg">
<path d="M24 4.5C20.1433 4.5 16.3731 5.64366 13.1664 7.78634C9.95963 9.92903 7.46027 12.9745 5.98436 16.5377C4.50845 20.1008 4.12228 24.0216 4.8747 27.8043C5.62711 31.5869 7.4843 35.0615 10.2114 37.7886C12.9386 40.5157 16.4131 42.3729 20.1957 43.1253C23.9784 43.8777 27.8992 43.4916 31.4623 42.0156C35.0255 40.5397 38.071 38.0404 40.2137 34.8336C42.3564 31.6269 43.5 27.8567 43.5 24C43.4945 18.83 41.4383 13.8732 37.7826 10.2174C34.1268 6.56167 29.1701 4.50546 24 4.5ZM24 40.5C20.7366 40.5 17.5465 39.5323 14.8331 37.7192C12.1197 35.9062 10.0048 33.3293 8.756 30.3143C7.50715 27.2993 7.1804 23.9817 7.81705 20.781C8.45371 17.5803 10.0252 14.6403 12.3327 12.3327C14.6403 10.0252 17.5803 8.4537 20.781 7.81704C23.9817 7.18039 27.2993 7.50714 30.3143 8.75599C33.3293 10.0048 35.9062 12.1197 37.7193 14.8331C39.5323 17.5465 40.5 20.7366 40.5 24C40.495 28.3745 38.7551 32.5685 35.6618 35.6618C32.5685 38.7551 28.3746 40.495 24 40.5Z" fill="#2BA78C"/>
<path d="M36.1773 13.7229C36.1633 13.4833 36.0618 13.2571 35.8921 13.0874C35.7223 12.9177 35.4962 12.8162 35.2565 12.8022C25.9349 12.2549 18.4682 15.0612 15.2847 20.3261C14.1812 22.127 13.6374 24.2151 13.7223 26.3256C13.7921 28.2748 14.3602 30.2436 15.4108 32.1843L13.0219 34.5718C12.8381 34.7556 12.7349 35.0049 12.7349 35.2648C12.7349 35.5248 12.8381 35.7741 13.0219 35.9578C13.2057 36.1416 13.455 36.2449 13.715 36.2449C13.9749 36.2449 14.2242 36.1416 14.408 35.9578L16.7957 33.5691C18.7352 34.6184 20.7053 35.1865 22.6534 35.2563C22.7897 35.2612 22.9256 35.2636 23.0611 35.2636C25.0346 35.2689 26.9707 34.7254 28.6531 33.6939C33.9182 30.5105 36.7259 23.0454 36.1773 13.7229ZM27.643 32.019C24.8574 33.7062 21.56 33.7331 18.2503 32.1133L29.1025 21.2627C29.1935 21.1717 29.2657 21.0637 29.315 20.9448C29.3642 20.8259 29.3896 20.6984 29.3896 20.5697C29.3896 20.441 29.3642 20.3136 29.315 20.1947C29.2657 20.0758 29.1935 19.9677 29.1025 19.8767C29.0115 19.7857 28.9035 19.7135 28.7845 19.6643C28.6656 19.615 28.5382 19.5897 28.4095 19.5897C28.2808 19.5897 28.1533 19.615 28.0344 19.6643C27.9155 19.7135 27.8075 19.7857 27.7164 19.8767L16.8654 30.7334C15.2504 27.4275 15.2737 24.1217 16.9597 21.3411C19.6645 16.8757 26.0941 14.4306 34.2623 14.722C34.5549 22.8838 32.1085 29.3143 27.643 32.019Z" fill="#2BA78C"/>
</svg>
